<svg width="122" height="122" viewBox="0 0 122 122" fill="none" xmlns="http://www.w3.org/2000/svg">
<path d="M1.77753 1.24699e-05C1.42858 1.24699e-05 1.08749 0.103495 0.797347 0.297368C0.507207 0.491241 0.281066 0.766798 0.147529 1.0892C0.0139916 1.4116 -0.0209356 1.76635 0.047141 2.10861C0.115218 2.45086 0.28325 2.76524 0.529994 3.012C0.776738 3.25875 1.09109 3.42679 1.43334 3.49487C1.77558 3.56295 2.13033 3.52801 2.45272 3.39446C2.7751 3.26092 3.05064 3.03478 3.24451 2.74463C3.43838 2.45448 3.54187 2.11335 3.54187 1.76439C3.54275 1.53245 3.4977 1.30262 3.40934 1.08816C3.32099 0.873699 3.19104 0.678846 3.02704 0.514834C2.86303 0.350822 2.66817 0.220896 2.45372 0.132537C2.23927 0.0441778 2.00946 -0.000861162 1.77753 1.24699e-05ZM1.77753 29.4064C1.42671 29.4051 1.08342 29.508 0.791179 29.7021C0.498941 29.8962 0.270928 30.1727 0.136073 30.4966C0.00121763 30.8205 -0.0344075 31.1771 0.0337133 31.5212C0.101834 31.8654 0.270629 32.1816 0.518695 32.4296C0.76676 32.6777 1.08294 32.8465 1.42708 32.9146C1.77123 32.9828 2.12785 32.9471 2.45171 32.8123C2.77557 32.6774 3.05207 32.4494 3.24616 32.1571C3.44025 31.8649 3.54318 31.5216 3.54187 31.1708C3.54187 30.7028 3.35598 30.254 3.0251 29.9232C2.69423 29.5923 2.24545 29.4064 1.77753 29.4064ZM1.77753 58.8193C1.42858 58.8193 1.08749 58.9228 0.797347 59.1167C0.507207 59.3106 0.281066 59.5861 0.147529 59.9085C0.0139916 60.2309 -0.0209356 60.5857 0.047141 60.9279C0.115218 61.2702 0.28325 61.5846 0.529994 61.8313C0.776738 62.0781 1.09109 62.2461 1.43334 62.3142C1.77558 62.3823 2.13033 62.3473 2.45272 62.2138C2.7751 62.0802 3.05064 61.8541 3.24451 61.564C3.43838 61.2738 3.54187 60.9327 3.54187 60.5837C3.54275 60.3518 3.4977 60.1219 3.40934 59.9075C3.32099 59.693 3.19104 59.4982 3.02704 59.3342C2.86303 59.1702 2.66817 59.0402 2.45372 58.9519C2.23927 58.8635 2.00946 58.8185 1.77753 58.8193ZM1.77753 88.2257C1.42699 88.2244 1.08396 88.3271 0.791861 88.521C0.499766 88.7148 0.271765 88.9909 0.136714 89.3144C0.00166297 89.6378 -0.0343585 89.9941 0.033225 90.3381C0.100808 90.6821 0.268953 90.9983 0.516356 91.2466C0.76376 91.4949 1.07931 91.6643 1.42301 91.7331C1.76672 91.802 2.12313 91.7673 2.44711 91.6335C2.77109 91.4996 3.04804 91.2727 3.24293 90.9813C3.43782 90.6899 3.54187 90.3472 3.54187 89.9967C3.54274 89.7644 3.49774 89.5343 3.40946 89.3195C3.32119 89.1046 3.19136 88.9093 3.02745 88.7448C2.86353 88.5803 2.66874 88.4497 2.45425 88.3606C2.23976 88.2715 2.00978 88.2257 1.77753 88.2257ZM1.77753 117.639C1.42671 117.637 1.08342 117.74 0.791179 117.934C0.498941 118.128 0.270928 118.405 0.136073 118.729C0.00121763 119.053 -0.0344075 119.409 0.0337133 119.754C0.101834 120.098 0.270629 120.414 0.518695 120.662C0.76676 120.91 1.08294 121.079 1.42708 121.147C1.77123 121.215 2.12785 121.179 2.45171 121.045C2.77557 120.91 3.05207 120.682 3.24616 120.389C3.44025 120.097 3.54318 119.754 3.54187 119.403C3.54187 118.935 3.35598 118.486 3.0251 118.155C2.69423 117.825 2.24545 117.639 1.77753 117.639ZM31.1894 1.24699e-05C30.8405 1.24699e-05 30.4994 0.103495 30.2092 0.297368C29.9191 0.491241 29.693 0.766798 29.5594 1.0892C29.4259 1.4116 29.3909 1.76635 29.459 2.10861C29.5271 2.45086 29.6951 2.76524 29.9419 3.012C30.1886 3.25875 30.503 3.42679 30.8452 3.49487C31.1875 3.56295 31.5422 3.52801 31.8646 3.39446C32.187 3.26092 32.4625 3.03478 32.6564 2.74463C32.8503 2.45448 32.9537 2.11335 32.9537 1.76439C32.9537 1.29645 32.7679 0.847676 32.437 0.51679C32.1061 0.185904 31.6573 1.24699e-05 31.1894 1.24699e-05ZM31.1894 29.4064C30.8386 29.4051 30.4953 29.508 30.2031 29.7021C29.9108 29.8962 29.6828 30.1727 29.548 30.4966C29.4131 30.8205 29.3775 31.1771 29.4456 31.5212C29.5137 31.8654 29.6825 32.1816 29.9306 32.4296C30.1787 32.6777 30.4948 32.8465 30.8389 32.9146C31.1831 32.9828 31.5397 32.9471 31.8636 32.8123C32.1874 32.6774 32.464 32.4494 32.6581 32.1571C32.8521 31.8649 32.955 31.5216 32.9537 31.1708C32.952 30.7033 32.7656 30.2556 32.4351 29.9251C32.1046 29.5946 31.6568 29.4081 31.1894 29.4064ZM31.1894 58.8193C30.8405 58.8193 30.4994 58.9228 30.2092 59.1167C29.9191 59.3106 29.693 59.5861 29.5594 59.9085C29.4259 60.2309 29.3909 60.5857 29.459 60.9279C29.5271 61.2702 29.6951 61.5846 29.9419 61.8313C30.1886 62.0781 30.503 62.2461 30.8452 62.3142C31.1875 62.3823 31.5422 62.3473 31.8646 62.2138C32.187 62.0802 32.4625 61.8541 32.6564 61.564C32.8503 61.2738 32.9537 60.9327 32.9537 60.5837C32.9537 60.352 32.9081 60.1226 32.8194 59.9085C32.7308 59.6944 32.6008 59.5 32.437 59.3361C32.2732 59.1723 32.0787 59.0423 31.8646 58.9536C31.6506 58.865 31.4211 58.8193 31.1894 58.8193ZM31.1894 88.2257C30.8389 88.2244 30.4959 88.3271 30.2038 88.521C29.9117 88.7148 29.6837 88.9909 29.5486 89.3144C29.4136 89.6378 29.3775 89.9941 29.4451 90.3381C29.5127 90.6821 29.6808 90.9983 29.9283 91.2466C30.1757 91.4949 30.4912 91.6643 30.8349 91.7331C31.1786 91.802 31.535 91.7673 31.859 91.6335C32.183 91.4996 32.4599 91.2727 32.6548 90.9813C32.8497 90.6899 32.9537 90.3472 32.9537 89.9967C32.9537 89.5281 32.7681 89.0787 32.4374 88.7467C32.1067 88.4148 31.658 88.2274 31.1894 88.2257ZM31.1894 117.639C30.8386 117.637 30.4953 117.74 30.2031 117.934C29.9108 118.128 29.6828 118.405 29.548 118.729C29.4131 119.053 29.3775 119.409 29.4456 119.754C29.5137 120.098 29.6825 120.414 29.9306 120.662C30.1787 120.91 30.4948 121.079 30.8389 121.147C31.1831 121.215 31.5397 121.179 31.8636 121.045C32.1874 120.91 32.464 120.682 32.6581 120.389C32.8521 120.097 32.955 119.754 32.9537 119.403C32.952 118.936 32.7656 118.488 32.4351 118.157C32.1046 117.827 31.6568 117.64 31.1894 117.639ZM60.5947 1.24699e-05C60.246 0.00131839 59.9056 0.10591 59.6163 0.300575C59.327 0.495239 59.1019 0.771243 58.9694 1.09375C58.8369 1.41627 58.8029 1.77082 58.8717 2.11264C58.9405 2.45446 59.1091 2.76822 59.3561 3.01431C59.6031 3.26041 59.9175 3.42779 60.2595 3.49534C60.6016 3.56288 60.956 3.52756 61.278 3.39383C61.6 3.2601 61.8752 3.03395 62.0687 2.74394C62.2623 2.45394 62.3656 2.11307 62.3656 1.76439C62.3656 1.53213 62.3198 1.30216 62.2307 1.08766C62.1416 0.873168 62.0111 0.678365 61.8466 0.514441C61.682 0.350516 61.4867 0.220695 61.2719 0.132416C61.0571 0.044137 60.827 -0.000857414 60.5947 1.24699e-05ZM60.5947 29.4064C60.2442 29.4064 59.9015 29.5104 59.6102 29.7053C59.3188 29.9002 59.0918 30.1772 58.958 30.5012C58.8241 30.8252 58.7894 31.1816 58.8583 31.5253C58.9272 31.869 59.0965 32.1846 59.3448 32.432C59.5931 32.6794 59.9093 32.8475 60.2533 32.9151C60.5972 32.9827 60.9535 32.9467 61.277 32.8116C61.6005 32.6766 61.8766 32.4486 62.0704 32.1565C62.2642 31.8643 62.3669 31.5213 62.3656 31.1708C62.3639 30.7022 62.1765 30.2534 61.8446 29.9227C61.5127 29.5921 61.0632 29.4064 60.5947 29.4064ZM60.5947 58.8193C60.246 58.8206 59.9056 58.9252 59.6163 59.1199C59.327 59.3146 59.1019 59.5906 58.9694 59.9131C58.8369 60.2356 58.8029 60.5901 58.8717 60.932C58.9405 61.2738 59.1091 61.5876 59.3561 61.8337C59.6031 62.0797 59.9175 62.2471 60.2595 62.3147C60.6016 62.3822 60.956 62.3469 61.278 62.2132C61.6 62.0794 61.8752 61.8533 62.0687 61.5633C62.2623 61.2733 62.3656 60.9324 62.3656 60.5837C62.3656 60.3515 62.3198 60.1215 62.2307 59.907C62.1416 59.6925 62.0111 59.4977 61.8466 59.3338C61.682 59.1698 61.4867 59.04 61.2719 58.9518C61.0571 58.8635 60.827 58.8185 60.5947 58.8193ZM60.5947 88.2257C60.2444 88.2257 59.9021 88.3296 59.6108 88.5242C59.3196 88.7188 59.0926 88.9954 58.9586 89.319C58.8245 89.6426 58.7895 89.9987 58.8578 90.3422C58.9262 90.6857 59.0948 91.0013 59.3425 91.249C59.5902 91.4966 59.9057 91.6653 60.2492 91.7336C60.5927 91.802 60.9488 91.7669 61.2724 91.6329C61.596 91.4988 61.8726 91.2718 62.0672 90.9806C62.2618 90.6894 62.3656 90.3469 62.3656 89.9967C62.3656 89.527 62.1791 89.0765 61.847 88.7444C61.5149 88.4123 61.0644 88.2257 60.5947 88.2257ZM60.5947 117.639C60.2442 117.639 59.9015 117.743 59.6102 117.938C59.3188 118.132 59.0918 118.409 58.958 118.733C58.8241 119.057 58.7894 119.414 58.8583 119.758C58.9272 120.101 59.0965 120.417 59.3448 120.664C59.5931 120.912 59.9093 121.08 60.2533 121.147C60.5972 121.215 60.9535 121.179 61.277 121.044C61.6005 120.909 61.8766 120.681 62.0704 120.389C62.2642 120.097 62.3669 119.754 62.3656 119.403C62.3639 118.934 62.1765 118.486 61.8446 118.155C61.5127 117.824 61.0632 117.639 60.5947 117.639ZM90.0065 1.24699e-05C89.6576 1.24699e-05 89.3165 0.103495 89.0264 0.297368C88.7362 0.491241 88.5101 0.766798 88.3766 1.0892C88.243 1.4116 88.2081 1.76635 88.2762 2.10861C88.3442 2.45086 88.5123 2.76524 88.759 3.012C89.0058 3.25875 89.3201 3.42679 89.6624 3.49487C90.0046 3.56295 90.3594 3.52801 90.6818 3.39446C91.0042 3.26092 91.2797 3.03478 91.4736 2.74463C91.6674 2.45448 91.7709 2.11335 91.7709 1.76439C91.7718 1.53245 91.7267 1.30262 91.6384 1.08816C91.55 0.873699 91.4201 0.678846 91.2561 0.514834C91.0921 0.350822 90.8973 0.220896 90.6828 0.132537C90.4684 0.0441778 90.2385 -0.000861162 90.0065 1.24699e-05ZM90.0065 29.4064C89.6557 29.4051 89.3125 29.508 89.0202 29.7021C88.728 29.8962 88.5 30.1727 88.3651 30.4966C88.2303 30.8205 88.1947 31.1771 88.2628 31.5212C88.3309 31.8654 88.4997 32.1816 88.7478 32.4296C88.9958 32.6777 89.312 32.8465 89.6562 32.9146C90.0003 32.9828 90.3569 32.9471 90.6807 32.8123C91.0046 32.6774 91.2811 32.4494 91.4752 32.1571C91.6693 31.8649 91.7722 31.5216 91.7709 31.1708C91.7709 30.7028 91.585 30.254 91.2542 29.9232C90.9233 29.5923 90.4745 29.4064 90.0065 29.4064ZM90.0065 58.8193C89.6576 58.8193 89.3165 58.9228 89.0264 59.1167C88.7362 59.3106 88.5101 59.5861 88.3766 59.9085C88.243 60.2309 88.2081 60.5857 88.2762 60.9279C88.3442 61.2702 88.5123 61.5846 88.759 61.8313C89.0058 62.0781 89.3201 62.2461 89.6624 62.3142C90.0046 62.3823 90.3594 62.3473 90.6818 62.2138C91.0042 62.0802 91.2797 61.8541 91.4736 61.564C91.6674 61.2738 91.7709 60.9327 91.7709 60.5837C91.7718 60.3518 91.7267 60.1219 91.6384 59.9075C91.55 59.693 91.4201 59.4982 91.2561 59.3342C91.0921 59.1702 90.8973 59.0402 90.6828 58.9519C90.4684 58.8635 90.2385 58.8185 90.0065 58.8193ZM90.0065 88.2257C89.656 88.2244 89.313 88.3271 89.0209 88.521C88.7288 88.7148 88.5008 88.9909 88.3658 89.3144C88.2308 89.6378 88.1947 89.9941 88.2623 90.3381C88.3299 90.6821 88.498 90.9983 88.7454 91.2466C88.9928 91.4949 89.3083 91.6643 89.652 91.7331C89.9957 91.802 90.3521 91.7673 90.6761 91.6335C91.0001 91.4996 91.2771 91.2727 91.472 90.9813C91.6669 90.6899 91.7709 90.3472 91.7709 89.9967C91.7718 89.7644 91.7268 89.5343 91.6385 89.3195C91.5502 89.1046 91.4204 88.9093 91.2565 88.7448C91.0926 88.5803 90.8978 88.4497 90.6833 88.3606C90.4688 88.2715 90.2388 88.2257 90.0065 88.2257ZM90.0065 117.639C89.6557 117.637 89.3125 117.74 89.0202 117.934C88.728 118.128 88.5 118.405 88.3651 118.729C88.2303 119.053 88.1947 119.409 88.2628 119.754C88.3309 120.098 88.4997 120.414 88.7478 120.662C88.9958 120.91 89.312 121.079 89.6562 121.147C90.0003 121.215 90.3569 121.179 90.6807 121.045C91.0046 120.91 91.2811 120.682 91.4752 120.389C91.6693 120.097 91.7722 119.754 91.7709 119.403C91.7709 118.935 91.585 118.486 91.2542 118.155C90.9233 117.825 90.4745 117.639 90.0065 117.639ZM119.418 1.24699e-05C119.07 1.24699e-05 118.728 0.103495 118.438 0.297368C118.148 0.491241 117.922 0.766798 117.788 1.0892C117.655 1.4116 117.62 1.76635 117.688 2.10861C117.756 2.45086 117.924 2.76524 118.171 3.012C118.418 3.25875 118.732 3.42679 119.074 3.49487C119.417 3.56295 119.771 3.52801 120.094 3.39446C120.416 3.26092 120.692 3.03478 120.885 2.74463C121.079 2.45448 121.183 2.11335 121.183 1.76439C121.183 1.29645 120.997 0.847676 120.666 0.51679C120.335 0.185904 119.886 1.24699e-05 119.418 1.24699e-05ZM119.418 29.4064C119.068 29.4051 118.724 29.508 118.432 29.7021C118.14 29.8962 117.912 30.1727 117.777 30.4966C117.642 30.8205 117.607 31.1771 117.675 31.5212C117.743 31.8654 117.912 32.1816 118.16 32.4296C118.408 32.6777 118.724 32.8465 119.068 32.9146C119.412 32.9828 119.769 32.9471 120.093 32.8123C120.417 32.6774 120.693 32.4494 120.887 32.1571C121.081 31.8649 121.184 31.5216 121.183 31.1708C121.181 30.7033 120.995 30.2556 120.664 29.9251C120.334 29.5946 119.886 29.4081 119.418 29.4064ZM119.418 58.8193C119.07 58.8193 118.728 58.9228 118.438 59.1167C118.148 59.3106 117.922 59.5861 117.788 59.9085C117.655 60.2309 117.62 60.5857 117.688 60.9279C117.756 61.2702 117.924 61.5846 118.171 61.8313C118.418 62.0781 118.732 62.2461 119.074 62.3142C119.417 62.3823 119.771 62.3473 120.094 62.2138C120.416 62.0802 120.692 61.8541 120.885 61.564C121.079 61.2738 121.183 60.9327 121.183 60.5837C121.183 60.352 121.137 60.1226 121.049 59.9085C120.96 59.6944 120.83 59.5 120.666 59.3361C120.502 59.1723 120.308 59.0423 120.094 58.9536C119.88 58.865 119.65 58.8193 119.418 58.8193ZM119.418 88.2257C119.068 88.2244 118.725 88.3271 118.433 88.521C118.141 88.7148 117.913 88.9909 117.778 89.3144C117.643 89.6378 117.607 89.9941 117.674 90.3381C117.742 90.6821 117.91 90.9983 118.157 91.2466C118.405 91.4949 118.72 91.6643 119.064 91.7331C119.408 91.802 119.764 91.7673 120.088 91.6335C120.412 91.4996 120.689 91.2727 120.884 90.9813C121.079 90.6899 121.183 90.3472 121.183 89.9967C121.183 89.5281 120.997 89.0787 120.666 88.7467C120.336 88.4148 119.887 88.2274 119.418 88.2257ZM119.418 117.639C119.068 117.637 118.724 117.74 118.432 117.934C118.14 118.128 117.912 118.405 117.777 118.729C117.642 119.053 117.607 119.409 117.675 119.754C117.743 120.098 117.912 120.414 118.16 120.662C118.408 120.91 118.724 121.079 119.068 121.147C119.412 121.215 119.769 121.179 120.093 121.045C120.417 120.91 120.693 120.682 120.887 120.389C121.081 120.097 121.184 119.754 121.183 119.403C121.181 118.936 120.995 118.488 120.664 118.157C120.334 117.827 119.886 117.64 119.418 117.639Z" fill="#825AFF"/>
</svg>
